<mxfile host="app.diagrams.net" modified="2023-09-15T22:35:40.199Z" agent="Mozilla/5.0 (Windows NT 10.0; Win64; x64; rv:109.0) Gecko/20100101 Firefox/117.0" etag="RJ8XP81ySIiQbfzsfpVX" version="21.6.6" type="github">
  <diagram name="Page-1" id="qzcIX9TbY_33AAOr_Iov">
    <mxGraphModel dx="1050" dy="558" grid="1" gridSize="10" guides="1" tooltips="1" connect="1" arrows="1" fold="1" page="1" pageScale="1" pageWidth="850" pageHeight="1100" math="0" shadow="0">
      <root>
        <mxCell id="0" />
        <mxCell id="1" parent="0" />
        <mxCell id="8u9LmbJdxK0uUFl3wjGJ-1" value="Role" style="swimlane;childLayout=stackLayout;horizontal=1;startSize=50;horizontalStack=0;rounded=1;fontSize=14;fontStyle=0;strokeWidth=2;resizeParent=0;resizeLast=1;shadow=0;dashed=0;align=center;arcSize=4;whiteSpace=wrap;html=1;" parent="1" vertex="1">
          <mxGeometry x="530" y="410" width="160" height="120" as="geometry" />
        </mxCell>
        <mxCell id="8u9LmbJdxK0uUFl3wjGJ-2" value="&lt;div&gt;name (string)&lt;/div&gt;&lt;div&gt;permissions (string)&lt;/div&gt;" style="align=left;strokeColor=none;fillColor=none;spacingLeft=4;fontSize=12;verticalAlign=top;resizable=0;rotatable=0;part=1;html=1;" parent="8u9LmbJdxK0uUFl3wjGJ-1" vertex="1">
          <mxGeometry y="50" width="160" height="70" as="geometry" />
        </mxCell>
        <mxCell id="8u9LmbJdxK0uUFl3wjGJ-3" value="User" style="swimlane;childLayout=stackLayout;horizontal=1;startSize=50;horizontalStack=0;rounded=1;fontSize=14;fontStyle=0;strokeWidth=2;resizeParent=0;resizeLast=1;shadow=0;dashed=0;align=center;arcSize=4;whiteSpace=wrap;html=1;" parent="1" vertex="1">
          <mxGeometry x="170" y="420" width="160" height="140" as="geometry" />
        </mxCell>
        <mxCell id="8u9LmbJdxK0uUFl3wjGJ-4" value="&lt;div&gt;firstName (string)&lt;br&gt;&lt;/div&gt;&lt;div&gt;lastName (string)&lt;/div&gt;&lt;div&gt;email (string)&lt;/div&gt;&lt;div&gt;password (string)&lt;/div&gt;&lt;div&gt;phone (number)&lt;br&gt;&lt;/div&gt;" style="align=left;strokeColor=none;fillColor=none;spacingLeft=4;fontSize=12;verticalAlign=top;resizable=0;rotatable=0;part=1;html=1;" parent="8u9LmbJdxK0uUFl3wjGJ-3" vertex="1">
          <mxGeometry y="50" width="160" height="90" as="geometry" />
        </mxCell>
        <mxCell id="hjmT8EPWsZnxXTiyZU3a-1" value="UserRole" style="swimlane;childLayout=stackLayout;horizontal=1;startSize=50;horizontalStack=0;rounded=1;fontSize=14;fontStyle=0;strokeWidth=2;resizeParent=0;resizeLast=1;shadow=0;dashed=0;align=center;arcSize=4;whiteSpace=wrap;html=1;" parent="1" vertex="1">
          <mxGeometry x="360" y="590" width="160" height="80" as="geometry" />
        </mxCell>
        <mxCell id="hjmT8EPWsZnxXTiyZU3a-2" value="time (dateTime)" style="align=left;strokeColor=none;fillColor=none;spacingLeft=4;fontSize=12;verticalAlign=top;resizable=0;rotatable=0;part=1;html=1;" parent="hjmT8EPWsZnxXTiyZU3a-1" vertex="1">
          <mxGeometry y="50" width="160" height="30" as="geometry" />
        </mxCell>
        <mxCell id="hjmT8EPWsZnxXTiyZU3a-3" value="" style="edgeStyle=entityRelationEdgeStyle;fontSize=12;html=1;endArrow=ERmandOne;startArrow=ERmandOne;rounded=0;exitX=0.992;exitY=0.588;exitDx=0;exitDy=0;exitPerimeter=0;entryX=0;entryY=0.75;entryDx=0;entryDy=0;" parent="1" source="hjmT8EPWsZnxXTiyZU3a-1" target="8u9LmbJdxK0uUFl3wjGJ-2" edge="1">
          <mxGeometry width="100" height="100" relative="1" as="geometry">
            <mxPoint x="420" y="630" as="sourcePoint" />
            <mxPoint x="520" y="520" as="targetPoint" />
          </mxGeometry>
        </mxCell>
        <mxCell id="hjmT8EPWsZnxXTiyZU3a-4" value="" style="edgeStyle=entityRelationEdgeStyle;fontSize=12;html=1;endArrow=ERmandOne;startArrow=ERmandOne;rounded=0;exitX=0;exitY=0.5;exitDx=0;exitDy=0;" parent="1" source="hjmT8EPWsZnxXTiyZU3a-1" target="8u9LmbJdxK0uUFl3wjGJ-4" edge="1">
          <mxGeometry width="100" height="100" relative="1" as="geometry">
            <mxPoint x="375" y="580" as="sourcePoint" />
            <mxPoint x="475" y="480" as="targetPoint" />
            <Array as="points">
              <mxPoint x="385" y="520" />
            </Array>
          </mxGeometry>
        </mxCell>
      </root>
    </mxGraphModel>
  </diagram>
</mxfile>
